<?xml version="1.0" encoding="UTF-8"?>
<svg id="_图层_1" data-name="图层 1" xmlns="http://www.w3.org/2000/svg" viewBox="0 0 1715.01 291.15">
  <defs>
    <style>
      .cls-1 {
        fill: none;
      }

      .cls-2 {
        fill: #71b7e1;
      }
    </style>
  </defs>
  <path class="cls-1" d="M703.4,175.17c-1.14-.4-2.37-.8-3.65-1.2,1.28.42,2.56.84,3.83,1.27-.11-.04-.18-.06-.18-.06Z"/>
  <path class="cls-1" d="M454.56,168.15c-14.42,0-21.48,13.03-21.48,29.3s7.06,29.12,21.48,29.12,21.25-12.85,21.25-29.12-7.06-29.3-21.25-29.3Z"/>
  <path class="cls-1" d="M642.73,148.4c4.15.34,8.32.79,12.42,1.36,0,0,31.85,6.03,48.24,11.77,0,0,15.64,5.35,34.91,13.05-17.84-41.6-35.68-83.2-53.52-124.79-14.02,32.87-28.03,65.75-42.05,98.62Z"/>
  <path class="cls-1" d="M1016.94,264.84c30.78-1.55,62.84-6.83,97.96-17.18-47.94,13.63-87.72,16.61-97.96,17.18Z"/>
  <path class="cls-1" d="M1622.52,90.6c-24.93,0-41.67,19.04-42.94,41.67h83.33c-.23-24.12-16.39-41.67-40.4-41.67Z"/>
  <path class="cls-1" d="M309.21,168.73c-13.95,0-21.13,11.87-21.13,28.43s7.3,28.83,21.13,28.83,20.9-11.58,20.9-28.83-7.41-28.43-20.9-28.43Z"/>
  <path class="cls-1" d="M1335.13,181.51c.08,0,.16-.01.24-.02-.1,0-.18.01-.24.02Z"/>
  <path class="cls-1" d="M1426.78,93.38c-22.04,0-37.51,14.77-37.51,40.4v33.68c20.78.9,45.83,3.15,72.02,8.08v-44.3c0-23.66-12.93-37.86-34.51-37.86Z"/>
  <path class="cls-1" d="M782.23,208c-5.02-2.66-10.45-5.3-16.02-7.87,5.33,2.51,10.83,5.21,16.47,8.11-.28-.15-.45-.24-.45-.24Z"/>
  <path class="cls-1" d="M1014.3,264.96c-32.47.74-61.18-1.43-85.9-5.03,28.55,4.25,56.67,6.31,85.9,5.03Z"/>
  <path class="cls-1" d="M819.56,227.48c-3.81-1.82-16.04-8.23-25.48-13.21,2.66,1.45,5.33,2.92,8.04,4.45,5.93,3.16,11.74,6.06,17.44,8.75Z"/>
  <path class="cls-1" d="M917.85,258.27c-10.7-1.81-20.56-3.88-29.57-6.07,9.46,2.37,17.99,4.09,25.46,5.38,1.37.24,2.74.47,4.11.7Z"/>
  <path class="cls-1" d="M1335.06,181.52s-.03,0-.03,0c-62.97,4.88-112.32,24.89-112.32,24.89-1.44.5-3.35,1.21-5.62,2.08,25.6-9.67,56.11-18.54,90.99-23.82,9.13-1.38,18.12-2.42,26.98-3.15Z"/>
  <path class="cls-1" d="M1192.23,218.72c2.3-1.03,4.67-2.05,7.07-3.08-11.16,4.59-23.45,9.76-31.66,13.24l-.66.56c8.23-3.31,16.64-6.87,25.26-10.72Z"/>
  <path class="cls-1" d="M1489.91,195.63c-13.09-3.47-26.18-6.17-38.9-8.26,19.81,3.47,37.52,7.74,52.64,11.82-9.72-2.8-13.74-3.56-13.74-3.56Z"/>
  <path class="cls-2" d="M56.16,174.17l-11.12-2.78c-9.73-2.32-20.27-6.43-20.15-16.33.06-8.92,8.05-15.46,21.48-15.46s21.25,5.96,22.35,16.04h20.67c-.4-20.03-17.49-34.22-42.73-34.22S3.07,135.43,3.13,156.39c0,17.02,12.1,26.81,31.61,31.84l13.49,3.47c12.8,3.24,21.25,7.24,21.31,16.44-.06,10.13-9.67,16.91-23.68,16.91s-23.86-6.02-24.72-18.47H0c.87,23.57,18.41,36.82,46.03,36.82s44.93-14.19,44.99-35.09c-.06-20.55-17.02-29.93-34.86-34.16Z"/>
  <path class="cls-2" d="M145.57,225.18c-5.27,0-9.5-1.85-9.5-10.31v-45.97h17.54v-16.21h-17.54v-21.31h-20.96v21.31h-12.62v16.21h12.62v49.45c-.12,16.73,12.04,24.96,27.79,24.49,5.96-.17,10.07-1.33,12.33-2.08l-3.53-16.39c-1.16.29-3.53.81-6.14.81Z"/>
  <path class="cls-2" d="M227.85,204.22c0,13.55-9.67,20.26-18.93,20.26-10.07,0-16.79-7.12-16.79-18.41v-53.38h-20.96v56.63c0,21.36,12.16,33.47,29.64,33.47,13.32,0,22.7-7.01,26.75-16.96h.93v15.81h20.32v-88.93h-20.96v51.53Z"/>
  <path class="cls-2" d="M329.71,167.39h-.87c-3.18-6.43-9.73-15.86-25.42-15.86-20.55,0-36.71,16.1-36.71,45.74s15.69,45.91,36.65,45.91c15.28,0,22.18-9.09,25.47-15.58h1.27v14.01h20.61v-118.58h-21.02v44.35ZM309.21,225.99c-13.84,0-21.13-12.16-21.13-28.83s7.18-28.43,21.13-28.43,20.9,11.17,20.9,28.43-7.53,28.83-20.9,28.83Z"/>
  <path class="cls-2" d="M383.68,117.31c-6.72,0-12.16,5.1-12.16,11.41s5.44,11.35,12.16,11.35,12.1-5.1,12.1-11.35-5.44-11.41-12.1-11.41Z"/>
  <rect class="cls-2" x="373.14" y="152.69" width="20.96" height="88.93"/>
  <path class="cls-2" d="M454.44,151.53c-26.05,0-42.61,18.41-42.61,45.97s16.56,45.86,42.61,45.86,42.61-18.35,42.61-45.86-16.56-45.97-42.61-45.97ZM454.56,226.57c-14.42,0-21.48-12.85-21.48-29.12s7.06-29.3,21.48-29.3,21.25,13.03,21.25,29.3-7.06,29.12-21.25,29.12Z"/>
  <path class="cls-2" d="M642.73,148.4c14.02-32.87,28.03-65.75,42.05-98.62,17.84,41.6,35.68,83.2,53.52,124.79,14.28,5.71,30.56,12.71,43.92,19.78,0,0,3.76,2,8.92,4.72-27.56-66.36-55.11-132.72-82.67-199.07h-47.4l-62.57,147.83c9.26-.44,26.53-.9,44.23.56"/>
  <path class="cls-2" d="M1200.01,201.71V1.27h-42.82v218.38c.32-.13.65-.26.97-.39,0,0,22.77-9.72,41.85-17.56Z"/>
  <path class="cls-2" d="M1283.78,46.54c13.27,0,24.12-10.16,24.12-22.62s-10.85-22.74-24.12-22.74-24.24,10.16-24.24,22.74,10.85,22.62,24.24,22.62Z"/>
  <path class="cls-2" d="M1304.56,60.37h-41.78v119.77c11.99-3.1,26.16-6.23,41.78-8.67V60.37Z"/>
  <path class="cls-2" d="M1389.27,167.45v-33.68c0-25.62,15.47-40.4,37.51-40.4s34.51,14.2,34.51,37.86v44.3c9.44,1.78,19.03,3.91,28.62,6.45,0,0,3.87.74,13.16,3.4v-60.61c.12-42.47-24.12-66.71-60.71-66.71-26.55,0-44.78,12.7-52.86,32.43h-2.08v-30.12h-39.93v106.85c9.58-.34,24.14-.54,41.78.23"/>
  <path class="cls-2" d="M1645.21,239.18c29.81-5.72,49.97-23.84,56.02-49.08l-39.01-4.39c-5.66,15-19.51,22.85-37.51,22.85-27.01,0-44.9-17.77-45.24-48.13h123.5v-12.81c0-62.21-37.4-89.56-81.02-89.56-50.78,0-83.91,37.28-83.91,91.99,0,19.59,4.06,36.66,11.64,50.57,18.25,6.47,41.36,15.11,70.27,26.61,0,0,10.86,5.01,25.27,11.95ZM1622.52,90.6c24.01,0,40.17,17.54,40.4,41.67h-83.33c1.27-22.62,18.01-41.67,42.94-41.67Z"/>
  <path class="cls-2" d="M862.55,135.62c0-22.39,16.85-38.2,38.66-38.2,6.81,0,12,1.62,16.5,3.69l12.93-34.63c-6.23-3.92-14.2-6.46-23.78-6.46-20.43,0-37.28,11.54-43.74,32.09h-1.85v-29.55h-40.51v151.9c3.33,1.81,17.55,9.2,41.78,16.91v-95.75Z"/>
  <path class="cls-2" d="M1025.17,243.4c44.55,0,72.94-26.43,75.94-64.06h-39.93c-3.58,19.04-17.31,30.01-35.66,30.01-26.08,0-42.94-21.81-42.94-58.05s17.2-57.25,42.94-57.25c20.08,0,32.43,12.93,35.66,30.01h39.93c-2.89-38.43-32.89-63.71-76.18-63.71-51.94,0-84.72,37.51-84.72,91.64s31.97,91.41,84.95,91.41Z"/>
  <path class="cls-2" d="M1619.94,240.87c-63.36-25.2-98.92-36.68-116.29-41.68-15.11-4.09-32.83-8.36-52.64-11.82-59.71-9.82-111.11-6.22-115.65-5.87-.08,0-.16.01-.24.02-.03,0-.06,0-.07,0-8.85.74-17.85,1.77-26.98,3.15-34.89,5.28-65.39,14.16-90.99,23.82-4.76,1.84-11.06,4.39-17.79,7.15-2.4,1.03-4.77,2.05-7.07,3.08-8.61,3.85-17.02,7.41-25.26,10.72l.66-.56c-5.73,2.42-9.47,4.02-9.47,4.02-14.76,5.95-29.36,10.79-43.27,14.75-35.12,10.34-67.18,15.62-97.96,17.18-1.68.09-2.57.12-2.57.12-.02,0-.04,0-.06,0-29.23,1.28-57.34-.79-85.9-5.03-3.6-.53-7.13-1.08-10.56-1.66-1.37-.23-2.74-.46-4.11-.7-7.46-1.29-16-3.01-25.46-5.38-44.6-10.82-68.27-24.51-68.27-24.51-.13-.06-.29-.13-.44-.21-5.69-2.69-11.51-5.6-17.44-8.75-2.71-1.53-5.38-3.01-8.04-4.45-5.49-2.9-10.02-5.3-11.41-6.04-5.65-2.9-11.14-5.6-16.47-8.11-28.09-12.95-60-23.99-62.63-24.89-1.27-.43-2.55-.85-3.83-1.27-17.04-5.35-44.59-10.56-44.59-10.56-29.81-4.2-63.6-1.51-63.6-1.51l-34.76,81.51h47.49c5.57-11.71,11.13-23.41,16.7-35.12,9.64-.6,20.49-.85,32.34-.42,0,0,16.61.59,33.12,2.84,49.05,6.69,100.13,30.3,100.13,30.3,153.8,71.08,282.65,44.09,282.65,44.09,49.99-8.28,91.42-24.04,123.1-39.52,69.72-34.08,104.25-36.04,154.19-40.37,11.14-.97,42.12-3.21,82.04.49,39.28,3.64,70.2,11.46,105.34,21.91,108.29,32.2,179.67,66.47,181.11,63.36-10.51-11.05-95.07-50.08-95.07-50.08Z"/>
</svg>